PathFileType	4	(X/Y/Z)	Patient4_TMGait_0pt3_01_left_11.trc.trc
DataRate	CameraRate	NumFrames	NumMarkers	Units	OrigDataRate	OrigDataStartFrame	OrigNumFrames
50.541516245487	50.541516245487	6	33	mm	50.541516245487	1	       141
Frame#	Time	Sacral			L.Shoulder			Chest			R.Shoulder			Neck			R.ASIS			L.ASIS			R.Thigh.Superior			R.Thigh.Lateral			R.Thigh.Inferior			R.Patella			L.Thigh.Superior			L.Thigh.Lateral			L.Thigh.Inferior			L.Patella			L.Shank.Superior			L.Shank.Lateral			L.Shank.Inferior			R.Shank.Superior			R.Shank.Lateral			R.Shank.Inferior			R.Heel			R.Midfoot.Superior			R.Midfoot.Lateral			R.Toe			L.Heel			L.Midfoot.Lateral			L.Midfoot.Superior			L.Toe			L.Elbow			L.Wrist			R.Elbow			R.Wrist			
		X1	Y1	Z1	X2	Y2	Z2	X3	Y3	Z3	X4	Y4	Z4	X5	Y5	Z5	X6	Y6	Z6	X7	Y7	Z7	X8	Y8	Z8	X9	Y9	Z9	X10	Y10	Z10	X11	Y11	Z11	X12	Y12	Z12	X13	Y13	Z13	X14	Y14	Z14	X15	Y15	Z15	X16	Y16	Z16	X17	Y17	Z17	X18	Y18	Z18	X19	Y19	Z19	X20	Y20	Z20	X21	Y21	Z21	X22	Y22	Z22	X23	Y23	Z23	X24	Y24	Z24	X25	Y25	Z25	X26	Y26	Z26	X27	Y27	Z27	X28	Y28	Z28	X29	Y29	Z29	X30	Y30	Z30	X31	Y31	Z31	X32	Y32	Z32	X33	Y33	Z33	

1	20.250000000000	622.290774518007	992.888593184601	541.258659226533	789.953079731507	1432.487521038860	381.658334385394	885.001094600204	1366.282598757208	548.200421806863	787.637376451668	1432.258683765361	717.627750251265	763.892892013708	1491.059351630466	542.325743080320	846.691199234186	938.423375896835	673.229055735775	849.295995571092	961.554473211608	399.094839840647	895.200073510923	738.089933750131	635.237602540736	812.785424271615	621.276258773798	682.974139847098	896.089096436503	574.962994029852	605.893183332325	897.211425541327	481.319644182277	607.946102662640	914.763068113095	753.970609550496	423.828058411524	853.941806325123	635.563529477119	340.035517324812	941.669095750606	557.089607864640	406.751330781138	942.876009480780	470.389750839697	394.623579816542	877.112342995651	411.845375295439	373.069331683807	739.684972101166	370.375327762101	313.578208027676	732.716011253504	234.028647205998	351.188171952891	856.644388032856	393.615459768154	605.710752313788	771.123395180071	294.764499459629	657.921892302087	804.726441887845	200.534083931141	590.562835607783	654.967117986436	43.787626842201	546.046088326173	826.365083450560	96.475657188019	593.498195288864	734.100001375633	37.155143644236	625.776967705450	942.554234570000	41.598668705913	628.395131807603	546.144568211804	144.024896530562	374.731560219124	608.265369465519	125.032185672541	287.313124590123	712.074028855353	143.024678879338	312.137333841975	804.185653825566	51.363992065829	260.446930908933	820.371555743128	1078.505357168235	268.376734805614	1002.149891530364	888.202406926134	292.438846176677	817.842306934763	1088.034411639090	849.393551984322	1021.540094984062	924.827379018979	876.946879454249	
2	20.269785714286	620.194526512225	991.151683988030	545.158588375076	785.970048364333	1430.160837140639	382.356918033614	883.482929136878	1364.387652691230	547.576848298667	789.210738450144	1431.060001960985	718.431298799165	762.674010907909	1489.600520882733	543.110038876515	845.909126900087	937.247437304060	674.365450830421	845.374366507192	960.530890614568	400.328233237854	894.455733129773	737.078126339067	635.824638231505	812.962466154773	619.816263615570	684.031878944263	895.604736400945	573.809094945190	606.109639114668	896.771548894009	479.558629687126	608.174144713165	913.968711536081	755.720693298640	425.671460168953	856.028666475084	636.085793881514	341.814121483610	945.325974194602	559.810134732700	408.671875166295	949.122853783746	473.619206466275	396.413611836744	885.807609842989	413.337859781145	374.978904889088	750.331270300236	366.135148208279	316.247283403094	749.580695890623	229.900908933674	353.839153369194	854.919853963265	392.064060836977	605.958018348280	768.354452689503	294.142124800236	658.391878449612	800.286907665683	199.776196041538	590.638192985236	648.948208833852	44.008061281437	546.073424908369	820.345056476906	96.399812709422	593.473717273920	728.061610690768	37.158472651940	625.785050765960	936.525831760637	41.353427489949	628.372313348247	567.772942397698	132.100028704984	378.556643146136	629.972674269389	115.733610462484	290.778797381486	732.683022834963	138.224299141458	315.024765317346	828.219702363328	50.915629945274	262.921815917149	805.139918412925	1074.876450491492	271.808538626792	965.437181745238	871.088245202834	288.221572534274	828.146114488874	1088.614157603005	850.453222394490	1040.949492945568	940.583106262346	873.023486252645	
3	20.289571428571	617.949954986791	989.332604207782	549.043283126070	782.075677232486	1427.682353849676	383.024380523730	882.035435004687	1362.263419949777	546.902215164508	790.885382742522	1429.680423453334	719.171866892655	761.569787556985	1487.978228029429	543.844513366695	845.032227030324	935.903361633206	675.503254711449	841.322239970653	959.278727839465	401.556546494710	893.686281240788	735.942330214263	636.406051338572	813.154788955170	618.223446532974	685.034857311270	895.180999537360	572.559136567589	606.269762844796	896.420366474886	477.677559432828	608.319835356218	913.054779597606	757.400899932657	427.540669418262	858.126912742524	636.546779776833	343.624385560599	949.041158976902	562.578488161114	410.650002593094	955.489623579619	476.922023619004	398.279293608320	894.690150284157	414.863340787528	376.947748432660	761.281653710063	361.839946897087	318.939134501009	766.831508511430	225.796544816094	356.537744404240	853.231525578566	390.401133191176	606.123764736232	765.593076681588	293.463520470080	658.793748641235	795.761233498649	198.947124024270	590.660268837925	642.773236414934	44.229311747979	546.105070855739	814.159261721715	96.318517069678	593.438046097963	721.860429485096	37.164024466570	625.791469162166	930.332340634416	41.094499408243	628.355178768597	589.941706508173	120.134690369503	382.381095184770	652.229332866240	106.422729312028	294.261105344188	753.765509089061	133.476817779369	317.960828233058	852.753354588957	50.613425599639	265.476650371176	789.341209062900	1071.386069285495	274.939423773886	927.787080108002	854.648122368393	283.943985408928	838.728960311176	1089.115455632467	851.365034897293	1060.485549420973	956.882198394644	868.684595146176	
4	20.309357142857	615.579804127262	987.482808666773	552.780428566694	778.418415426666	1425.098779614614	383.616670636467	880.732389968869	1359.912737757358	546.156858289882	792.661658791347	1428.117014120352	719.781999372720	760.664968890143	1486.201964580572	544.471336759453	844.059416127947	934.383503599425	676.586089967745	837.210924008047	957.775020598431	402.721113093113	892.888112317611	734.676732882245	636.934215383915	813.330766840240	616.509429977903	685.914522714262	894.813725939112	571.220053454150	606.327051958910	896.152973140416	475.699024554886	608.327702304830	911.992138529341	758.951814239429	429.370960871385	860.147062056831	636.932355438369	345.402605959278	952.687620622444	565.343718753121	412.621600489617	961.780663957673	480.246219060810	400.171121074567	903.525426468749	416.414643115622	378.922764375799	772.319040002988	357.617961740646	321.549613682121	784.093749447873	221.888520065589	359.204435070327	851.601429078390	388.646962987985	606.157923535880	762.894805824756	292.735468265569	659.081021691016	791.230456323374	198.052257747449	590.602887619129	636.556296452629	44.442856255521	546.142376987148	807.917217086672	96.230767138411	593.384017026931	715.609262058756	37.173115030273	625.795616181886	924.085763109853	40.826771899892	628.345911531785	612.204434664296	108.529269857756	386.056610469033	674.608812327354	97.416491898341	297.646011563715	774.888287229381	128.982106161356	320.872232118170	877.258864997346	50.554468963865	268.102432919022	773.225637759074	1068.266274411595	277.550360182001	890.042021629044	839.781807583618	279.742997166206	849.376095693938	1089.525257683514	852.012798807641	1079.524507195263	973.472877231114	863.851493582732	
5	20.329142857143	613.115090869930	985.667075561867	556.271353293779	775.094355007852	1422.475006241068	384.095034511852	879.624286913489	1357.369915346520	545.313341771838	794.542907594430	1426.396064976845	720.201140248195	760.019194306806	1484.305373308814	544.938601813635	843.000692418233	932.702591962689	677.552937947209	833.096879071887	956.035501940424	403.761227250837	892.042290524142	733.286383296126	637.354213317160	813.437611344792	614.701303387566	686.609703166349	894.459134763117	569.805496562688	606.233311252872	895.917563781719	473.654552302768	608.145418104954	910.761419558709	760.354196624413	431.107164390836	862.013099784867	637.258123527516	347.088612658257	956.149766536872	568.082993433495	414.522219041151	967.819439880720	483.569583561908	402.034935487853	912.112510116121	418.007776022031	380.850244850046	783.271750158803	353.586424850389	323.980681696072	801.077376710674	218.335106634979	361.766633489794	850.006866611253	386.832647824206	606.016979953508	760.270547918057	291.971178102540	659.216329092614	786.735616898267	197.105018249513	590.444595498626	630.374319025909	44.641493154796	546.186405088260	801.691463425431	96.135286497262	593.304329177831	709.384643634215	37.186799004722	625.796760559947	917.862123909058	40.556047980256	628.345344757215	634.222254987708	97.622450757497	389.453978330642	696.797187510154	88.983916779841	300.838397688910	795.729625411249	124.916047346126	323.699751536066	901.341217937705	50.830761351644	270.809638345464	756.986671058744	1065.737960159464	279.490998547510	852.913175377110	827.202743743572	275.748950150679	859.924364725312	1089.864144664608	852.299084197879	1097.561047328390	990.182119801783	858.458735594454	
6	20.348928571429	610.599820705980	983.964298622150	559.454605676743	772.139890381798	1419.897531091381	384.428396327057	878.733569303156	1354.708966407441	544.338750052071	796.532145248918	1424.579741972442	720.379828528845	759.659718397957	1482.351788832905	545.204109525732	841.880602127847	930.904826762014	678.341332927470	829.024279861934	954.123357212717	404.617746452533	891.116037884460	731.792580373706	637.607571287153	813.402662742402	612.846317043707	687.072657407044	894.032339053727	568.339221457549	605.944395005901	895.612907682395	471.588249800937	607.730847335794	909.355770612525	761.629865080409	432.700752130644	863.660156185061	637.568556480244	348.624743782606	959.321413172621	570.797716458194	416.284220600421	973.447523877050	486.896774737625	403.809006113427	920.282617292163	419.679016538983	382.674501805657	794.009184435334	349.844871825084	326.142166687292	817.577014221921	215.270143968539	364.159594033652	848.378311032511	385.003197583037	605.669960127530	757.684035358470	291.192290036302	659.176425673353	782.278228548779	196.129367000873	590.172564611781	624.268737907641	44.819704138345	546.237716301007	795.520249670707	96.031071679306	593.192865387334	703.228832372353	37.205723477892	625.794626141424	911.703501763996	40.289321353251	628.352795098025	655.764360242446	87.672424494417	392.468071063331	718.592798022944	81.330084504885	303.765544730378	816.080026830746	121.418622154131	326.398617015772	924.743130854610	51.520405721161	273.625650684180	740.775905086672	1063.993648781299	280.700064705061	816.977590851425	817.380525377994	272.080386350332	870.258748900388	1090.189369995264	852.152875784460	1114.225083381840	1006.903581627366	852.467674087672	
